<?xml version="1.0" encoding="UTF-8" standalone="no"?>
<!DOCTYPE svg PUBLIC "-//W3C//DTD SVG 1.1//EN"
 "http://www.w3.org/Graphics/SVG/1.1/DTD/svg11.dtd">
<!-- Generated by graphviz version 2.47.0 (20210316.0004)
 -->
<!-- Title: dbml Pages: 1 -->
<svg width="2182pt" height="2428pt"
 viewBox="0.00 0.00 2182.17 2427.80" xmlns="http://www.w3.org/2000/svg" xmlns:xlink="http://www.w3.org/1999/xlink">
<g id="graph0" class="graph" transform="scale(1 1) rotate(0) translate(4 2423.8)">
<title>dbml</title>
<!-- Activity -->
<g id="Activity" class="node">
<title>Activity</title>
<ellipse fill="none" stroke="black" stroke-width="0" cx="820.18" cy="-1785.11" rx="217.58" ry="172.57"/>
<polygon fill="#1d71b8" stroke="transparent" points="668.18,-1845.11 668.18,-1905.11 972.18,-1905.11 972.18,-1845.11 668.18,-1845.11"/>
<polygon fill="none" stroke="#29235c" points="668.18,-1845.11 668.18,-1905.11 972.18,-1905.11 972.18,-1845.11 668.18,-1845.11"/>
<text text-anchor="start" x="707.27" y="-1866.31" font-family="Helvetica,sans-Serif" font-weight="bold" font-size="32.00" fill="#ffffff"> &#160;&#160;&#160;&#160;&#160;&#160;Activity &#160;&#160;&#160;&#160;&#160;&#160;</text>
<polygon fill="#e7e2dd" stroke="transparent" points="668.18,-1785.11 668.18,-1845.11 972.18,-1845.11 972.18,-1785.11 668.18,-1785.11"/>
<polygon fill="none" stroke="#29235c" points="668.18,-1785.11 668.18,-1845.11 972.18,-1845.11 972.18,-1785.11 668.18,-1785.11"/>
<text text-anchor="start" x="679.18" y="-1806.31" font-family="Helvetica,sans-Serif" font-weight="bold" font-size="32.00" fill="#29235c">id</text>
<text text-anchor="start" x="704.07" y="-1806.31" font-family="Helvetica,sans-Serif" font-size="32.00" fill="#29235c"> &#160;&#160;&#160;</text>
<text text-anchor="start" x="818.96" y="-1806.31" font-family="Helvetica,sans-Serif" font-style="italic" font-size="32.00" fill="#29235c">INTEGER</text>
<polygon fill="#e7e2dd" stroke="transparent" points="668.18,-1725.11 668.18,-1785.11 972.18,-1785.11 972.18,-1725.11 668.18,-1725.11"/>
<polygon fill="none" stroke="#29235c" points="668.18,-1725.11 668.18,-1785.11 972.18,-1785.11 972.18,-1725.11 668.18,-1725.11"/>
<text text-anchor="start" x="679.18" y="-1745.31" font-family="Helvetica,sans-Serif" font-size="32.00" fill="#29235c">description &#160;&#160;&#160;</text>
<text text-anchor="start" x="879.4" y="-1746.31" font-family="Helvetica,sans-Serif" font-style="italic" font-size="32.00" fill="#29235c">TEXT</text>
<polygon fill="#e7e2dd" stroke="transparent" points="668.18,-1665.11 668.18,-1725.11 972.18,-1725.11 972.18,-1665.11 668.18,-1665.11"/>
<polygon fill="none" stroke="#29235c" points="668.18,-1665.11 668.18,-1725.11 972.18,-1725.11 972.18,-1665.11 668.18,-1665.11"/>
<text text-anchor="start" x="678.94" y="-1685.31" font-family="Helvetica,sans-Serif" font-size="32.00" fill="#29235c">user_id &#160;&#160;&#160;</text>
<text text-anchor="start" x="819.07" y="-1686.31" font-family="Helvetica,sans-Serif" font-style="italic" font-size="32.00" fill="#29235c">INTEGER</text>
<polygon fill="none" stroke="#29235c" stroke-width="2" points="667.18,-1664.11 667.18,-1906.11 973.18,-1906.11 973.18,-1664.11 667.18,-1664.11"/>
</g>
<!-- User -->
<g id="User" class="node">
<title>User</title>
<ellipse fill="none" stroke="black" stroke-width="0" cx="1366.71" cy="-1725.11" rx="253.7" ry="257.27"/>
<polygon fill="#1d71b8" stroke="transparent" points="1189.71,-1845.11 1189.71,-1905.11 1544.71,-1905.11 1544.71,-1845.11 1189.71,-1845.11"/>
<polygon fill="none" stroke="#29235c" points="1189.71,-1845.11 1189.71,-1905.11 1544.71,-1905.11 1544.71,-1845.11 1189.71,-1845.11"/>
<text text-anchor="start" x="1271.19" y="-1866.31" font-family="Helvetica,sans-Serif" font-weight="bold" font-size="32.00" fill="#ffffff"> &#160;&#160;&#160;&#160;&#160;&#160;User &#160;&#160;&#160;&#160;&#160;&#160;</text>
<polygon fill="#e7e2dd" stroke="transparent" points="1189.71,-1785.11 1189.71,-1845.11 1544.71,-1845.11 1544.71,-1785.11 1189.71,-1785.11"/>
<polygon fill="none" stroke="#29235c" points="1189.71,-1785.11 1189.71,-1845.11 1544.71,-1845.11 1544.71,-1785.11 1189.71,-1785.11"/>
<text text-anchor="start" x="1200.71" y="-1806.31" font-family="Helvetica,sans-Serif" font-weight="bold" font-size="32.00" fill="#29235c">id</text>
<text text-anchor="start" x="1225.6" y="-1806.31" font-family="Helvetica,sans-Serif" font-size="32.00" fill="#29235c"> &#160;&#160;&#160;</text>
<text text-anchor="start" x="1391.49" y="-1806.31" font-family="Helvetica,sans-Serif" font-style="italic" font-size="32.00" fill="#29235c">INTEGER</text>
<polygon fill="#e7e2dd" stroke="transparent" points="1189.71,-1725.11 1189.71,-1785.11 1544.71,-1785.11 1544.71,-1725.11 1189.71,-1725.11"/>
<polygon fill="none" stroke="#29235c" points="1189.71,-1725.11 1189.71,-1785.11 1544.71,-1785.11 1544.71,-1725.11 1189.71,-1725.11"/>
<text text-anchor="start" x="1200.3" y="-1745.31" font-family="Helvetica,sans-Serif" font-size="32.00" fill="#29235c">username &#160;&#160;&#160;</text>
<text text-anchor="start" x="1377.5" y="-1746.31" font-family="Helvetica,sans-Serif" font-style="italic" font-size="32.00" fill="#29235c">VARCHAR</text>
<polygon fill="#e7e2dd" stroke="transparent" points="1189.71,-1665.11 1189.71,-1725.11 1544.71,-1725.11 1544.71,-1665.11 1189.71,-1665.11"/>
<polygon fill="none" stroke="#29235c" points="1189.71,-1665.11 1189.71,-1725.11 1544.71,-1725.11 1544.71,-1665.11 1189.71,-1665.11"/>
<text text-anchor="start" x="1200.71" y="-1685.31" font-family="Helvetica,sans-Serif" font-size="32.00" fill="#29235c">email &#160;&#160;&#160;</text>
<text text-anchor="start" x="1377.29" y="-1686.31" font-family="Helvetica,sans-Serif" font-style="italic" font-size="32.00" fill="#29235c">VARCHAR</text>
<polygon fill="#e7e2dd" stroke="transparent" points="1189.71,-1605.11 1189.71,-1665.11 1544.71,-1665.11 1544.71,-1605.11 1189.71,-1605.11"/>
<polygon fill="none" stroke="#29235c" points="1189.71,-1605.11 1189.71,-1665.11 1544.71,-1665.11 1544.71,-1605.11 1189.71,-1605.11"/>
<text text-anchor="start" x="1200.71" y="-1625.31" font-family="Helvetica,sans-Serif" font-size="32.00" fill="#29235c">password &#160;&#160;&#160;</text>
<text text-anchor="start" x="1377.29" y="-1626.31" font-family="Helvetica,sans-Serif" font-style="italic" font-size="32.00" fill="#29235c">VARCHAR</text>
<polygon fill="#e7e2dd" stroke="transparent" points="1189.71,-1545.11 1189.71,-1605.11 1544.71,-1605.11 1544.71,-1545.11 1189.71,-1545.11"/>
<polygon fill="none" stroke="#29235c" points="1189.71,-1545.11 1189.71,-1605.11 1544.71,-1605.11 1544.71,-1545.11 1189.71,-1545.11"/>
<text text-anchor="start" x="1200.71" y="-1565.31" font-family="Helvetica,sans-Serif" font-size="32.00" fill="#29235c">profile_id &#160;&#160;&#160;</text>
<text text-anchor="start" x="1391.49" y="-1566.31" font-family="Helvetica,sans-Serif" font-style="italic" font-size="32.00" fill="#29235c">INTEGER</text>
<polygon fill="none" stroke="#29235c" stroke-width="2" points="1188.21,-1544.11 1188.21,-1906.11 1545.21,-1906.11 1545.21,-1544.11 1188.21,-1544.11"/>
</g>
<!-- Activity&#45;&gt;User -->
<!-- Activity&#45;&gt;User -->
<g id="edge2" class="edge">
<title>Activity:e&#45;&gt;User:w</title>
<path fill="none" stroke="#29235c" stroke-width="3" d="M973.18,-1695.11C1079.29,-1695.11 1079.2,-1807.5 1178.46,-1814.74"/>
<polygon fill="#29235c" stroke="#29235c" stroke-width="3" points="1178.59,-1818.25 1188.71,-1815.11 1178.84,-1811.25 1178.59,-1818.25"/>
<text text-anchor="middle" x="1182.49" y="-1824.71" font-family="Helvetica,sans-Serif" font-size="32.00" fill="#29235c">*</text>
<text text-anchor="middle" x="982.08" y="-1704.71" font-family="Helvetica,sans-Serif" font-size="32.00" fill="#29235c">1</text>
</g>
<!-- Profile -->
<g id="Profile" class="node">
<title>Profile</title>
<ellipse fill="none" stroke="black" stroke-width="0" cx="1915.36" cy="-1725.11" rx="258.6" ry="257.27"/>
<polygon fill="#1d71b8" stroke="transparent" points="1734.36,-1845.11 1734.36,-1905.11 2096.36,-1905.11 2096.36,-1845.11 1734.36,-1845.11"/>
<polygon fill="none" stroke="#29235c" points="1734.36,-1845.11 1734.36,-1905.11 2096.36,-1905.11 2096.36,-1845.11 1734.36,-1845.11"/>
<text text-anchor="start" x="1807.78" y="-1866.31" font-family="Helvetica,sans-Serif" font-weight="bold" font-size="32.00" fill="#ffffff"> &#160;&#160;&#160;&#160;&#160;&#160;Profile &#160;&#160;&#160;&#160;&#160;&#160;</text>
<polygon fill="#e7e2dd" stroke="transparent" points="1734.36,-1785.11 1734.36,-1845.11 2096.36,-1845.11 2096.36,-1785.11 1734.36,-1785.11"/>
<polygon fill="none" stroke="#29235c" points="1734.36,-1785.11 1734.36,-1845.11 2096.36,-1845.11 2096.36,-1785.11 1734.36,-1785.11"/>
<text text-anchor="start" x="1745.36" y="-1806.31" font-family="Helvetica,sans-Serif" font-weight="bold" font-size="32.00" fill="#29235c">id</text>
<text text-anchor="start" x="1770.25" y="-1806.31" font-family="Helvetica,sans-Serif" font-size="32.00" fill="#29235c"> &#160;&#160;&#160;</text>
<text text-anchor="start" x="1943.15" y="-1806.31" font-family="Helvetica,sans-Serif" font-style="italic" font-size="32.00" fill="#29235c">INTEGER</text>
<polygon fill="#e7e2dd" stroke="transparent" points="1734.36,-1725.11 1734.36,-1785.11 2096.36,-1785.11 2096.36,-1725.11 1734.36,-1725.11"/>
<polygon fill="none" stroke="#29235c" points="1734.36,-1725.11 1734.36,-1785.11 2096.36,-1785.11 2096.36,-1725.11 1734.36,-1725.11"/>
<text text-anchor="start" x="1744.91" y="-1745.31" font-family="Helvetica,sans-Serif" font-size="32.00" fill="#29235c">first_name &#160;&#160;&#160;</text>
<text text-anchor="start" x="1929.15" y="-1746.31" font-family="Helvetica,sans-Serif" font-style="italic" font-size="32.00" fill="#29235c">VARCHAR</text>
<polygon fill="#e7e2dd" stroke="transparent" points="1734.36,-1665.11 1734.36,-1725.11 2096.36,-1725.11 2096.36,-1665.11 1734.36,-1665.11"/>
<polygon fill="none" stroke="#29235c" points="1734.36,-1665.11 1734.36,-1725.11 2096.36,-1725.11 2096.36,-1665.11 1734.36,-1665.11"/>
<text text-anchor="start" x="1745.36" y="-1685.31" font-family="Helvetica,sans-Serif" font-size="32.00" fill="#29235c">last_name &#160;&#160;&#160;</text>
<text text-anchor="start" x="1929.15" y="-1686.31" font-family="Helvetica,sans-Serif" font-style="italic" font-size="32.00" fill="#29235c">VARCHAR</text>
<polygon fill="#e7e2dd" stroke="transparent" points="1734.36,-1605.11 1734.36,-1665.11 2096.36,-1665.11 2096.36,-1605.11 1734.36,-1605.11"/>
<polygon fill="none" stroke="#29235c" points="1734.36,-1605.11 1734.36,-1665.11 2096.36,-1665.11 2096.36,-1605.11 1734.36,-1605.11"/>
<text text-anchor="start" x="1745.36" y="-1625.31" font-family="Helvetica,sans-Serif" font-size="32.00" fill="#29235c">bio &#160;&#160;&#160;</text>
<text text-anchor="start" x="2003.59" y="-1626.31" font-family="Helvetica,sans-Serif" font-style="italic" font-size="32.00" fill="#29235c">TEXT</text>
<polygon fill="#e7e2dd" stroke="transparent" points="1734.36,-1545.11 1734.36,-1605.11 2096.36,-1605.11 2096.36,-1545.11 1734.36,-1545.11"/>
<polygon fill="none" stroke="#29235c" points="1734.36,-1545.11 1734.36,-1605.11 2096.36,-1605.11 2096.36,-1545.11 1734.36,-1545.11"/>
<text text-anchor="start" x="1745.36" y="-1565.31" font-family="Helvetica,sans-Serif" font-size="32.00" fill="#29235c">user_id &#160;&#160;&#160;</text>
<text text-anchor="start" x="1943.15" y="-1566.31" font-family="Helvetica,sans-Serif" font-style="italic" font-size="32.00" fill="#29235c">INTEGER</text>
<polygon fill="none" stroke="#29235c" stroke-width="2" points="1733.36,-1544.11 1733.36,-1906.11 2097.36,-1906.11 2097.36,-1544.11 1733.36,-1544.11"/>
</g>
<!-- User&#45;&gt;Profile -->
<!-- User&#45;&gt;Profile -->
<g id="edge4" class="edge">
<title>User:e&#45;&gt;Profile:w</title>
<path fill="none" stroke="#29235c" stroke-width="3" d="M1545.71,-1575.11C1677.54,-1575.11 1602.2,-1802.62 1723.1,-1814.62"/>
<polygon fill="#29235c" stroke="#29235c" stroke-width="3" points="1723.21,-1818.12 1733.36,-1815.11 1723.54,-1811.13 1723.21,-1818.12"/>
<text text-anchor="middle" x="1739.59" y="-1824.71" font-family="Helvetica,sans-Serif" font-size="32.00" fill="#29235c">*</text>
<text text-anchor="middle" x="1536.82" y="-1584.71" font-family="Helvetica,sans-Serif" font-size="32.00" fill="#29235c">1</text>
</g>
<!-- Comment -->
<g id="Comment" class="node">
<title>Comment</title>
<ellipse fill="none" stroke="black" stroke-width="0" cx="263.75" cy="-977.11" rx="217.58" ry="214.92"/>
<polygon fill="#1d71b8" stroke="transparent" points="111.75,-1067.11 111.75,-1127.11 415.75,-1127.11 415.75,-1067.11 111.75,-1067.11"/>
<polygon fill="none" stroke="#29235c" points="111.75,-1067.11 111.75,-1127.11 415.75,-1127.11 415.75,-1067.11 111.75,-1067.11"/>
<text text-anchor="start" x="132.17" y="-1088.31" font-family="Helvetica,sans-Serif" font-weight="bold" font-size="32.00" fill="#ffffff"> &#160;&#160;&#160;&#160;&#160;&#160;Comment &#160;&#160;&#160;&#160;&#160;&#160;</text>
<polygon fill="#e7e2dd" stroke="transparent" points="111.75,-1007.11 111.75,-1067.11 415.75,-1067.11 415.75,-1007.11 111.75,-1007.11"/>
<polygon fill="none" stroke="#29235c" points="111.75,-1007.11 111.75,-1067.11 415.75,-1067.11 415.75,-1007.11 111.75,-1007.11"/>
<text text-anchor="start" x="122.75" y="-1028.31" font-family="Helvetica,sans-Serif" font-weight="bold" font-size="32.00" fill="#29235c">id</text>
<text text-anchor="start" x="147.64" y="-1028.31" font-family="Helvetica,sans-Serif" font-size="32.00" fill="#29235c"> &#160;&#160;&#160;</text>
<text text-anchor="start" x="262.53" y="-1028.31" font-family="Helvetica,sans-Serif" font-style="italic" font-size="32.00" fill="#29235c">INTEGER</text>
<polygon fill="#e7e2dd" stroke="transparent" points="111.75,-947.11 111.75,-1007.11 415.75,-1007.11 415.75,-947.11 111.75,-947.11"/>
<polygon fill="none" stroke="#29235c" points="111.75,-947.11 111.75,-1007.11 415.75,-1007.11 415.75,-947.11 111.75,-947.11"/>
<text text-anchor="start" x="122.75" y="-967.31" font-family="Helvetica,sans-Serif" font-size="32.00" fill="#29235c">content &#160;&#160;&#160;</text>
<text text-anchor="start" x="322.97" y="-968.31" font-family="Helvetica,sans-Serif" font-style="italic" font-size="32.00" fill="#29235c">TEXT</text>
<polygon fill="#e7e2dd" stroke="transparent" points="111.75,-887.11 111.75,-947.11 415.75,-947.11 415.75,-887.11 111.75,-887.11"/>
<polygon fill="none" stroke="#29235c" points="111.75,-887.11 111.75,-947.11 415.75,-947.11 415.75,-887.11 111.75,-887.11"/>
<text text-anchor="start" x="122.75" y="-907.31" font-family="Helvetica,sans-Serif" font-size="32.00" fill="#29235c">post_id &#160;&#160;&#160;</text>
<text text-anchor="start" x="262.53" y="-908.31" font-family="Helvetica,sans-Serif" font-style="italic" font-size="32.00" fill="#29235c">INTEGER</text>
<polygon fill="#e7e2dd" stroke="transparent" points="111.75,-827.11 111.75,-887.11 415.75,-887.11 415.75,-827.11 111.75,-827.11"/>
<polygon fill="none" stroke="#29235c" points="111.75,-827.11 111.75,-887.11 415.75,-887.11 415.75,-827.11 111.75,-827.11"/>
<text text-anchor="start" x="122.51" y="-847.31" font-family="Helvetica,sans-Serif" font-size="32.00" fill="#29235c">user_id &#160;&#160;&#160;</text>
<text text-anchor="start" x="262.64" y="-848.31" font-family="Helvetica,sans-Serif" font-style="italic" font-size="32.00" fill="#29235c">INTEGER</text>
<polygon fill="none" stroke="#29235c" stroke-width="2" points="110.75,-826.11 110.75,-1128.11 416.75,-1128.11 416.75,-826.11 110.75,-826.11"/>
</g>
<!-- Comment&#45;&gt;User -->
<!-- Comment&#45;&gt;User -->
<g id="edge8" class="edge">
<title>Comment:e&#45;&gt;User:w</title>
<path fill="none" stroke="#29235c" stroke-width="3" d="M416.75,-857.11C487.91,-857.11 493.85,-807.64 563.5,-793.11 619.34,-781.46 1034.39,-755.03 1076.86,-793.11 1244.4,-943.31 968.82,-1788.95 1178.69,-1814.52"/>
<polygon fill="#29235c" stroke="#29235c" stroke-width="3" points="1178.52,-1818.01 1188.71,-1815.11 1178.94,-1811.02 1178.52,-1818.01"/>
<text text-anchor="middle" x="1194.93" y="-1824.71" font-family="Helvetica,sans-Serif" font-size="32.00" fill="#29235c">*</text>
<text text-anchor="middle" x="407.86" y="-866.71" font-family="Helvetica,sans-Serif" font-size="32.00" fill="#29235c">1</text>
</g>
<!-- Post -->
<g id="Post" class="node">
<title>Post</title>
<ellipse fill="none" stroke="black" stroke-width="0" cx="820.18" cy="-531.11" rx="217.58" ry="214.92"/>
<polygon fill="#1d71b8" stroke="transparent" points="668.18,-621.11 668.18,-681.11 972.18,-681.11 972.18,-621.11 668.18,-621.11"/>
<polygon fill="none" stroke="#29235c" points="668.18,-621.11 668.18,-681.11 972.18,-681.11 972.18,-621.11 668.18,-621.11"/>
<text text-anchor="start" x="725.92" y="-642.31" font-family="Helvetica,sans-Serif" font-weight="bold" font-size="32.00" fill="#ffffff"> &#160;&#160;&#160;&#160;&#160;&#160;Post &#160;&#160;&#160;&#160;&#160;&#160;</text>
<polygon fill="#e7e2dd" stroke="transparent" points="668.18,-561.11 668.18,-621.11 972.18,-621.11 972.18,-561.11 668.18,-561.11"/>
<polygon fill="none" stroke="#29235c" points="668.18,-561.11 668.18,-621.11 972.18,-621.11 972.18,-561.11 668.18,-561.11"/>
<text text-anchor="start" x="679.18" y="-582.31" font-family="Helvetica,sans-Serif" font-weight="bold" font-size="32.00" fill="#29235c">id</text>
<text text-anchor="start" x="704.07" y="-582.31" font-family="Helvetica,sans-Serif" font-size="32.00" fill="#29235c"> &#160;&#160;&#160;</text>
<text text-anchor="start" x="818.96" y="-582.31" font-family="Helvetica,sans-Serif" font-style="italic" font-size="32.00" fill="#29235c">INTEGER</text>
<polygon fill="#e7e2dd" stroke="transparent" points="668.18,-501.11 668.18,-561.11 972.18,-561.11 972.18,-501.11 668.18,-501.11"/>
<polygon fill="none" stroke="#29235c" points="668.18,-501.11 668.18,-561.11 972.18,-561.11 972.18,-501.11 668.18,-501.11"/>
<text text-anchor="start" x="679.18" y="-521.31" font-family="Helvetica,sans-Serif" font-size="32.00" fill="#29235c">title &#160;&#160;&#160;</text>
<text text-anchor="start" x="804.76" y="-522.31" font-family="Helvetica,sans-Serif" font-style="italic" font-size="32.00" fill="#29235c">VARCHAR</text>
<polygon fill="#e7e2dd" stroke="transparent" points="668.18,-441.11 668.18,-501.11 972.18,-501.11 972.18,-441.11 668.18,-441.11"/>
<polygon fill="none" stroke="#29235c" points="668.18,-441.11 668.18,-501.11 972.18,-501.11 972.18,-441.11 668.18,-441.11"/>
<text text-anchor="start" x="679.18" y="-461.31" font-family="Helvetica,sans-Serif" font-size="32.00" fill="#29235c">content &#160;&#160;&#160;</text>
<text text-anchor="start" x="879.4" y="-462.31" font-family="Helvetica,sans-Serif" font-style="italic" font-size="32.00" fill="#29235c">TEXT</text>
<polygon fill="#e7e2dd" stroke="transparent" points="668.18,-381.11 668.18,-441.11 972.18,-441.11 972.18,-381.11 668.18,-381.11"/>
<polygon fill="none" stroke="#29235c" points="668.18,-381.11 668.18,-441.11 972.18,-441.11 972.18,-381.11 668.18,-381.11"/>
<text text-anchor="start" x="678.94" y="-401.31" font-family="Helvetica,sans-Serif" font-size="32.00" fill="#29235c">user_id &#160;&#160;&#160;</text>
<text text-anchor="start" x="819.07" y="-402.31" font-family="Helvetica,sans-Serif" font-style="italic" font-size="32.00" fill="#29235c">INTEGER</text>
<polygon fill="none" stroke="#29235c" stroke-width="2" points="667.18,-380.11 667.18,-682.11 973.18,-682.11 973.18,-380.11 667.18,-380.11"/>
</g>
<!-- Comment&#45;&gt;Post -->
<!-- Comment&#45;&gt;Post -->
<g id="edge6" class="edge">
<title>Comment:e&#45;&gt;Post:w</title>
<path fill="none" stroke="#29235c" stroke-width="3" d="M416.75,-917.11C595.98,-917.11 488.75,-603.41 657.06,-591.46"/>
<polygon fill="#29235c" stroke="#29235c" stroke-width="3" points="657.31,-594.95 667.18,-591.11 657.07,-587.96 657.31,-594.95"/>
<text text-anchor="middle" x="673.4" y="-562.31" font-family="Helvetica,sans-Serif" font-size="32.00" fill="#29235c">*</text>
<text text-anchor="middle" x="407.86" y="-926.71" font-family="Helvetica,sans-Serif" font-size="32.00" fill="#29235c">1</text>
</g>
<!-- Post&#45;&gt;User -->
<!-- Post&#45;&gt;User -->
<g id="edge10" class="edge">
<title>Post:e&#45;&gt;User:w</title>
<path fill="none" stroke="#29235c" stroke-width="3" d="M973.18,-411.11C1134.99,-411.11 1045.16,-601.43 1076.86,-760.11 1099.28,-872.32 1072.49,-1760.77 1178.73,-1812.73"/>
<polygon fill="#29235c" stroke="#29235c" stroke-width="3" points="1178.17,-1816.2 1188.71,-1815.11 1179.79,-1809.39 1178.17,-1816.2"/>
<text text-anchor="middle" x="1182.49" y="-1786.31" font-family="Helvetica,sans-Serif" font-size="32.00" fill="#29235c">*</text>
<text text-anchor="middle" x="982.08" y="-382.31" font-family="Helvetica,sans-Serif" font-size="32.00" fill="#29235c">1</text>
</g>
<!-- Follow -->
<g id="Follow" class="node">
<title>Follow</title>
<ellipse fill="none" stroke="black" stroke-width="0" cx="820.18" cy="-2148.11" rx="256.86" ry="172.57"/>
<polygon fill="#1d71b8" stroke="transparent" points="641.18,-2208.11 641.18,-2268.11 1000.18,-2268.11 1000.18,-2208.11 641.18,-2208.11"/>
<polygon fill="none" stroke="#29235c" points="641.18,-2208.11 641.18,-2268.11 1000.18,-2268.11 1000.18,-2208.11 641.18,-2208.11"/>
<text text-anchor="start" x="712.22" y="-2229.31" font-family="Helvetica,sans-Serif" font-weight="bold" font-size="32.00" fill="#ffffff"> &#160;&#160;&#160;&#160;&#160;&#160;Follow &#160;&#160;&#160;&#160;&#160;&#160;</text>
<polygon fill="#e7e2dd" stroke="transparent" points="641.18,-2148.11 641.18,-2208.11 1000.18,-2208.11 1000.18,-2148.11 641.18,-2148.11"/>
<polygon fill="none" stroke="#29235c" points="641.18,-2148.11 641.18,-2208.11 1000.18,-2208.11 1000.18,-2148.11 641.18,-2148.11"/>
<text text-anchor="start" x="652.18" y="-2169.31" font-family="Helvetica,sans-Serif" font-weight="bold" font-size="32.00" fill="#29235c">id</text>
<text text-anchor="start" x="677.07" y="-2169.31" font-family="Helvetica,sans-Serif" font-size="32.00" fill="#29235c"> &#160;&#160;&#160;</text>
<text text-anchor="start" x="846.96" y="-2169.31" font-family="Helvetica,sans-Serif" font-style="italic" font-size="32.00" fill="#29235c">INTEGER</text>
<polygon fill="#e7e2dd" stroke="transparent" points="641.18,-2088.11 641.18,-2148.11 1000.18,-2148.11 1000.18,-2088.11 641.18,-2088.11"/>
<polygon fill="none" stroke="#29235c" points="641.18,-2088.11 641.18,-2148.11 1000.18,-2148.11 1000.18,-2088.11 641.18,-2088.11"/>
<text text-anchor="start" x="652.18" y="-2108.31" font-family="Helvetica,sans-Serif" font-size="32.00" fill="#29235c">follower_id &#160;&#160;&#160;</text>
<text text-anchor="start" x="846.96" y="-2109.31" font-family="Helvetica,sans-Serif" font-style="italic" font-size="32.00" fill="#29235c">INTEGER</text>
<polygon fill="#e7e2dd" stroke="transparent" points="641.18,-2028.11 641.18,-2088.11 1000.18,-2088.11 1000.18,-2028.11 641.18,-2028.11"/>
<polygon fill="none" stroke="#29235c" points="641.18,-2028.11 641.18,-2088.11 1000.18,-2088.11 1000.18,-2028.11 641.18,-2028.11"/>
<text text-anchor="start" x="651.88" y="-2048.31" font-family="Helvetica,sans-Serif" font-size="32.00" fill="#29235c">followee_id &#160;&#160;&#160;</text>
<text text-anchor="start" x="847.07" y="-2049.31" font-family="Helvetica,sans-Serif" font-style="italic" font-size="32.00" fill="#29235c">INTEGER</text>
<polygon fill="none" stroke="#29235c" stroke-width="2" points="639.68,-2027.11 639.68,-2269.11 1000.68,-2269.11 1000.68,-2027.11 639.68,-2027.11"/>
</g>
<!-- Follow&#45;&gt;User -->
<!-- Follow&#45;&gt;User -->
<g id="edge12" class="edge">
<title>Follow:e&#45;&gt;User:w</title>
<path fill="none" stroke="#29235c" stroke-width="3" d="M1001.18,-2058.11C1134.01,-2058.11 1056.64,-1827.75 1178.38,-1815.61"/>
<polygon fill="#29235c" stroke="#29235c" stroke-width="3" points="1178.89,-1819.08 1188.71,-1815.11 1178.56,-1812.09 1178.89,-1819.08"/>
<text text-anchor="middle" x="1194.93" y="-1786.31" font-family="Helvetica,sans-Serif" font-size="32.00" fill="#29235c">*</text>
<text text-anchor="middle" x="1010.08" y="-2067.71" font-family="Helvetica,sans-Serif" font-size="32.00" fill="#29235c">1</text>
</g>
<!-- Follow&#45;&gt;User -->
<!-- Follow&#45;&gt;User -->
<g id="edge14" class="edge">
<title>Follow:e&#45;&gt;User:w</title>
<path fill="none" stroke="#29235c" stroke-width="3" d="M1001.18,-2118.11C1156,-2118.11 1036,-1828.57 1178.47,-1815.56"/>
<polygon fill="#29235c" stroke="#29235c" stroke-width="3" points="1178.88,-1819.04 1188.71,-1815.11 1178.57,-1812.05 1178.88,-1819.04"/>
<text text-anchor="middle" x="1182.49" y="-1824.71" font-family="Helvetica,sans-Serif" font-size="32.00" fill="#29235c">*</text>
<text text-anchor="middle" x="1010.08" y="-2127.71" font-family="Helvetica,sans-Serif" font-size="32.00" fill="#29235c">1</text>
</g>
<!-- Like -->
<g id="Like" class="node">
<title>Like</title>
<ellipse fill="none" stroke="black" stroke-width="0" cx="263.75" cy="-572.11" rx="217.58" ry="172.57"/>
<polygon fill="#1d71b8" stroke="transparent" points="111.75,-632.11 111.75,-692.11 415.75,-692.11 415.75,-632.11 111.75,-632.11"/>
<polygon fill="none" stroke="#29235c" points="111.75,-632.11 111.75,-692.11 415.75,-692.11 415.75,-632.11 111.75,-632.11"/>
<text text-anchor="start" x="172.16" y="-653.31" font-family="Helvetica,sans-Serif" font-weight="bold" font-size="32.00" fill="#ffffff"> &#160;&#160;&#160;&#160;&#160;&#160;Like &#160;&#160;&#160;&#160;&#160;&#160;</text>
<polygon fill="#e7e2dd" stroke="transparent" points="111.75,-572.11 111.75,-632.11 415.75,-632.11 415.75,-572.11 111.75,-572.11"/>
<polygon fill="none" stroke="#29235c" points="111.75,-572.11 111.75,-632.11 415.75,-632.11 415.75,-572.11 111.75,-572.11"/>
<text text-anchor="start" x="122.75" y="-593.31" font-family="Helvetica,sans-Serif" font-weight="bold" font-size="32.00" fill="#29235c">id</text>
<text text-anchor="start" x="147.64" y="-593.31" font-family="Helvetica,sans-Serif" font-size="32.00" fill="#29235c"> &#160;&#160;&#160;</text>
<text text-anchor="start" x="262.53" y="-593.31" font-family="Helvetica,sans-Serif" font-style="italic" font-size="32.00" fill="#29235c">INTEGER</text>
<polygon fill="#e7e2dd" stroke="transparent" points="111.75,-512.11 111.75,-572.11 415.75,-572.11 415.75,-512.11 111.75,-512.11"/>
<polygon fill="none" stroke="#29235c" points="111.75,-512.11 111.75,-572.11 415.75,-572.11 415.75,-512.11 111.75,-512.11"/>
<text text-anchor="start" x="122.75" y="-532.31" font-family="Helvetica,sans-Serif" font-size="32.00" fill="#29235c">post_id &#160;&#160;&#160;</text>
<text text-anchor="start" x="262.53" y="-533.31" font-family="Helvetica,sans-Serif" font-style="italic" font-size="32.00" fill="#29235c">INTEGER</text>
<polygon fill="#e7e2dd" stroke="transparent" points="111.75,-452.11 111.75,-512.11 415.75,-512.11 415.75,-452.11 111.75,-452.11"/>
<polygon fill="none" stroke="#29235c" points="111.75,-452.11 111.75,-512.11 415.75,-512.11 415.75,-452.11 111.75,-452.11"/>
<text text-anchor="start" x="122.51" y="-472.31" font-family="Helvetica,sans-Serif" font-size="32.00" fill="#29235c">user_id &#160;&#160;&#160;</text>
<text text-anchor="start" x="262.64" y="-473.31" font-family="Helvetica,sans-Serif" font-style="italic" font-size="32.00" fill="#29235c">INTEGER</text>
<polygon fill="none" stroke="#29235c" stroke-width="2" points="110.75,-451.11 110.75,-693.11 416.75,-693.11 416.75,-451.11 110.75,-451.11"/>
</g>
<!-- Like&#45;&gt;User -->
<!-- Like&#45;&gt;User -->
<g id="edge18" class="edge">
<title>Like:e&#45;&gt;User:w</title>
<path fill="none" stroke="#29235c" stroke-width="3" d="M416.75,-482.11C480.46,-482.11 489.26,-442.06 527.5,-391.11 551.89,-358.62 529.59,-329.47 563.5,-307.11 611.12,-275.71 1035.06,-268.29 1076.86,-307.11 1197.46,-419.09 1027.92,-1758.48 1178.81,-1813.37"/>
<polygon fill="#29235c" stroke="#29235c" stroke-width="3" points="1178.26,-1816.83 1188.71,-1815.11 1179.47,-1809.93 1178.26,-1816.83"/>
<text text-anchor="middle" x="1194.93" y="-1824.71" font-family="Helvetica,sans-Serif" font-size="32.00" fill="#29235c">*</text>
<text text-anchor="middle" x="407.86" y="-453.31" font-family="Helvetica,sans-Serif" font-size="32.00" fill="#29235c">1</text>
</g>
<!-- Like&#45;&gt;Post -->
<!-- Like&#45;&gt;Post -->
<g id="edge16" class="edge">
<title>Like:e&#45;&gt;Post:w</title>
<path fill="none" stroke="#29235c" stroke-width="3" d="M416.75,-542.11C526.73,-542.11 552.26,-588.19 657.12,-590.98"/>
<polygon fill="#29235c" stroke="#29235c" stroke-width="3" points="657.14,-594.48 667.18,-591.11 657.23,-587.48 657.14,-594.48"/>
<text text-anchor="middle" x="673.4" y="-600.71" font-family="Helvetica,sans-Serif" font-size="32.00" fill="#29235c">*</text>
<text text-anchor="middle" x="425.65" y="-542.11" font-family="Helvetica,sans-Serif" font-size="32.00" fill="#29235c">1</text>
</g>
<!-- Log -->
<g id="Log" class="node">
<title>Log</title>
<ellipse fill="none" stroke="black" stroke-width="0" cx="263.75" cy="-1382.11" rx="263.5" ry="172.57"/>
<polygon fill="#1d71b8" stroke="transparent" points="79.75,-1442.11 79.75,-1502.11 448.75,-1502.11 448.75,-1442.11 79.75,-1442.11"/>
<polygon fill="none" stroke="#29235c" points="79.75,-1442.11 79.75,-1502.11 448.75,-1502.11 448.75,-1442.11 79.75,-1442.11"/>
<text text-anchor="start" x="175.32" y="-1463.31" font-family="Helvetica,sans-Serif" font-weight="bold" font-size="32.00" fill="#ffffff"> &#160;&#160;&#160;&#160;&#160;&#160;Log &#160;&#160;&#160;&#160;&#160;&#160;</text>
<polygon fill="#e7e2dd" stroke="transparent" points="79.75,-1382.11 79.75,-1442.11 448.75,-1442.11 448.75,-1382.11 79.75,-1382.11"/>
<polygon fill="none" stroke="#29235c" points="79.75,-1382.11 79.75,-1442.11 448.75,-1442.11 448.75,-1382.11 79.75,-1382.11"/>
<text text-anchor="start" x="90.75" y="-1403.31" font-family="Helvetica,sans-Serif" font-weight="bold" font-size="32.00" fill="#29235c">id</text>
<text text-anchor="start" x="115.64" y="-1403.31" font-family="Helvetica,sans-Serif" font-size="32.00" fill="#29235c"> &#160;&#160;&#160;</text>
<text text-anchor="start" x="295.53" y="-1403.31" font-family="Helvetica,sans-Serif" font-style="italic" font-size="32.00" fill="#29235c">INTEGER</text>
<polygon fill="#e7e2dd" stroke="transparent" points="79.75,-1322.11 79.75,-1382.11 448.75,-1382.11 448.75,-1322.11 79.75,-1322.11"/>
<polygon fill="none" stroke="#29235c" points="79.75,-1322.11 79.75,-1382.11 448.75,-1382.11 448.75,-1322.11 79.75,-1322.11"/>
<text text-anchor="start" x="90.75" y="-1342.31" font-family="Helvetica,sans-Serif" font-size="32.00" fill="#29235c">entry &#160;&#160;&#160;</text>
<text text-anchor="start" x="355.97" y="-1343.31" font-family="Helvetica,sans-Serif" font-style="italic" font-size="32.00" fill="#29235c">TEXT</text>
<polygon fill="#e7e2dd" stroke="transparent" points="79.75,-1262.11 79.75,-1322.11 448.75,-1322.11 448.75,-1262.11 79.75,-1262.11"/>
<polygon fill="none" stroke="#29235c" points="79.75,-1262.11 79.75,-1322.11 448.75,-1322.11 448.75,-1262.11 79.75,-1262.11"/>
<text text-anchor="start" x="90.38" y="-1282.31" font-family="Helvetica,sans-Serif" font-size="32.00" fill="#29235c">created_at &#160;&#160;&#160;</text>
<text text-anchor="start" x="276.37" y="-1283.31" font-family="Helvetica,sans-Serif" font-style="italic" font-size="32.00" fill="#29235c">DATETIME</text>
<polygon fill="none" stroke="#29235c" stroke-width="2" points="78.25,-1261.11 78.25,-1503.11 449.25,-1503.11 449.25,-1261.11 78.25,-1261.11"/>
</g>
<!-- Message -->
<g id="Message" class="node">
<title>Message</title>
<ellipse fill="none" stroke="black" stroke-width="0" cx="820.18" cy="-1380.11" rx="254.62" ry="214.92"/>
<polygon fill="#1d71b8" stroke="transparent" points="642.18,-1470.11 642.18,-1530.11 998.18,-1530.11 998.18,-1470.11 642.18,-1470.11"/>
<polygon fill="none" stroke="#29235c" points="642.18,-1470.11 642.18,-1530.11 998.18,-1530.11 998.18,-1470.11 642.18,-1470.11"/>
<text text-anchor="start" x="693.03" y="-1491.31" font-family="Helvetica,sans-Serif" font-weight="bold" font-size="32.00" fill="#ffffff"> &#160;&#160;&#160;&#160;&#160;&#160;Message &#160;&#160;&#160;&#160;&#160;&#160;</text>
<polygon fill="#e7e2dd" stroke="transparent" points="642.18,-1410.11 642.18,-1470.11 998.18,-1470.11 998.18,-1410.11 642.18,-1410.11"/>
<polygon fill="none" stroke="#29235c" points="642.18,-1410.11 642.18,-1470.11 998.18,-1470.11 998.18,-1410.11 642.18,-1410.11"/>
<text text-anchor="start" x="653.18" y="-1431.31" font-family="Helvetica,sans-Serif" font-weight="bold" font-size="32.00" fill="#29235c">id</text>
<text text-anchor="start" x="678.07" y="-1431.31" font-family="Helvetica,sans-Serif" font-size="32.00" fill="#29235c"> &#160;&#160;&#160;</text>
<text text-anchor="start" x="844.96" y="-1431.31" font-family="Helvetica,sans-Serif" font-style="italic" font-size="32.00" fill="#29235c">INTEGER</text>
<polygon fill="#e7e2dd" stroke="transparent" points="642.18,-1350.11 642.18,-1410.11 998.18,-1410.11 998.18,-1350.11 642.18,-1350.11"/>
<polygon fill="none" stroke="#29235c" points="642.18,-1350.11 642.18,-1410.11 998.18,-1410.11 998.18,-1350.11 642.18,-1350.11"/>
<text text-anchor="start" x="653.18" y="-1370.31" font-family="Helvetica,sans-Serif" font-size="32.00" fill="#29235c">content &#160;&#160;&#160;</text>
<text text-anchor="start" x="905.4" y="-1371.31" font-family="Helvetica,sans-Serif" font-style="italic" font-size="32.00" fill="#29235c">TEXT</text>
<polygon fill="#e7e2dd" stroke="transparent" points="642.18,-1290.11 642.18,-1350.11 998.18,-1350.11 998.18,-1290.11 642.18,-1290.11"/>
<polygon fill="none" stroke="#29235c" points="642.18,-1290.11 642.18,-1350.11 998.18,-1350.11 998.18,-1290.11 642.18,-1290.11"/>
<text text-anchor="start" x="653.18" y="-1310.31" font-family="Helvetica,sans-Serif" font-size="32.00" fill="#29235c">sender_id &#160;&#160;&#160;</text>
<text text-anchor="start" x="844.96" y="-1311.31" font-family="Helvetica,sans-Serif" font-style="italic" font-size="32.00" fill="#29235c">INTEGER</text>
<polygon fill="#e7e2dd" stroke="transparent" points="642.18,-1230.11 642.18,-1290.11 998.18,-1290.11 998.18,-1230.11 642.18,-1230.11"/>
<polygon fill="none" stroke="#29235c" points="642.18,-1230.11 642.18,-1290.11 998.18,-1290.11 998.18,-1230.11 642.18,-1230.11"/>
<text text-anchor="start" x="653.17" y="-1250.31" font-family="Helvetica,sans-Serif" font-size="32.00" fill="#29235c">receiver_id &#160;&#160;&#160;</text>
<text text-anchor="start" x="845.07" y="-1251.31" font-family="Helvetica,sans-Serif" font-style="italic" font-size="32.00" fill="#29235c">INTEGER</text>
<polygon fill="none" stroke="#29235c" stroke-width="2" points="641.18,-1229.11 641.18,-1531.11 999.18,-1531.11 999.18,-1229.11 641.18,-1229.11"/>
</g>
<!-- Message&#45;&gt;User -->
<!-- Message&#45;&gt;User -->
<g id="edge20" class="edge">
<title>Message:e&#45;&gt;User:w</title>
<path fill="none" stroke="#29235c" stroke-width="3" d="M999.18,-1260.11C1256.4,-1260.11 936.7,-1800.57 1178.71,-1814.82"/>
<polygon fill="#29235c" stroke="#29235c" stroke-width="3" points="1178.62,-1818.32 1188.71,-1815.11 1178.82,-1811.32 1178.62,-1818.32"/>
<text text-anchor="middle" x="1182.49" y="-1786.31" font-family="Helvetica,sans-Serif" font-size="32.00" fill="#29235c">*</text>
<text text-anchor="middle" x="1008.08" y="-1269.71" font-family="Helvetica,sans-Serif" font-size="32.00" fill="#29235c">1</text>
</g>
<!-- Message&#45;&gt;User -->
<!-- Message&#45;&gt;User -->
<g id="edge22" class="edge">
<title>Message:e&#45;&gt;User:w</title>
<path fill="none" stroke="#29235c" stroke-width="3" d="M999.18,-1320.11C1231.31,-1320.11 961.28,-1800.71 1178.69,-1814.79"/>
<polygon fill="#29235c" stroke="#29235c" stroke-width="3" points="1178.61,-1818.29 1188.71,-1815.11 1178.83,-1811.29 1178.61,-1818.29"/>
<text text-anchor="middle" x="1194.93" y="-1786.31" font-family="Helvetica,sans-Serif" font-size="32.00" fill="#29235c">*</text>
<text text-anchor="middle" x="1008.08" y="-1329.71" font-family="Helvetica,sans-Serif" font-size="32.00" fill="#29235c">1</text>
</g>
<!-- Notification -->
<g id="Notification" class="node">
<title>Notification</title>
<ellipse fill="none" stroke="black" stroke-width="0" cx="820.18" cy="-975.11" rx="217.58" ry="172.57"/>
<polygon fill="#1d71b8" stroke="transparent" points="668.18,-1035.11 668.18,-1095.11 972.18,-1095.11 972.18,-1035.11 668.18,-1035.11"/>
<polygon fill="none" stroke="#29235c" points="668.18,-1035.11 668.18,-1095.11 972.18,-1095.11 972.18,-1035.11 668.18,-1035.11"/>
<text text-anchor="start" x="678.81" y="-1056.31" font-family="Helvetica,sans-Serif" font-weight="bold" font-size="32.00" fill="#ffffff"> &#160;&#160;&#160;&#160;&#160;&#160;Notification &#160;&#160;&#160;&#160;&#160;&#160;</text>
<polygon fill="#e7e2dd" stroke="transparent" points="668.18,-975.11 668.18,-1035.11 972.18,-1035.11 972.18,-975.11 668.18,-975.11"/>
<polygon fill="none" stroke="#29235c" points="668.18,-975.11 668.18,-1035.11 972.18,-1035.11 972.18,-975.11 668.18,-975.11"/>
<text text-anchor="start" x="679.18" y="-996.31" font-family="Helvetica,sans-Serif" font-weight="bold" font-size="32.00" fill="#29235c">id</text>
<text text-anchor="start" x="704.07" y="-996.31" font-family="Helvetica,sans-Serif" font-size="32.00" fill="#29235c"> &#160;&#160;&#160;</text>
<text text-anchor="start" x="818.96" y="-996.31" font-family="Helvetica,sans-Serif" font-style="italic" font-size="32.00" fill="#29235c">INTEGER</text>
<polygon fill="#e7e2dd" stroke="transparent" points="668.18,-915.11 668.18,-975.11 972.18,-975.11 972.18,-915.11 668.18,-915.11"/>
<polygon fill="none" stroke="#29235c" points="668.18,-915.11 668.18,-975.11 972.18,-975.11 972.18,-915.11 668.18,-915.11"/>
<text text-anchor="start" x="679.18" y="-935.31" font-family="Helvetica,sans-Serif" font-size="32.00" fill="#29235c">content &#160;&#160;&#160;</text>
<text text-anchor="start" x="879.4" y="-936.31" font-family="Helvetica,sans-Serif" font-style="italic" font-size="32.00" fill="#29235c">TEXT</text>
<polygon fill="#e7e2dd" stroke="transparent" points="668.18,-855.11 668.18,-915.11 972.18,-915.11 972.18,-855.11 668.18,-855.11"/>
<polygon fill="none" stroke="#29235c" points="668.18,-855.11 668.18,-915.11 972.18,-915.11 972.18,-855.11 668.18,-855.11"/>
<text text-anchor="start" x="678.94" y="-875.31" font-family="Helvetica,sans-Serif" font-size="32.00" fill="#29235c">user_id &#160;&#160;&#160;</text>
<text text-anchor="start" x="819.07" y="-876.31" font-family="Helvetica,sans-Serif" font-style="italic" font-size="32.00" fill="#29235c">INTEGER</text>
<polygon fill="none" stroke="#29235c" stroke-width="2" points="667.18,-854.11 667.18,-1096.11 973.18,-1096.11 973.18,-854.11 667.18,-854.11"/>
</g>
<!-- Notification&#45;&gt;User -->
<!-- Notification&#45;&gt;User -->
<g id="edge24" class="edge">
<title>Notification:e&#45;&gt;User:w</title>
<path fill="none" stroke="#29235c" stroke-width="3" d="M973.18,-885.11C1181.8,-885.11 983.38,-1784.49 1178.49,-1814.35"/>
<polygon fill="#29235c" stroke="#29235c" stroke-width="3" points="1178.48,-1817.86 1188.71,-1815.11 1179,-1810.88 1178.48,-1817.86"/>
<text text-anchor="middle" x="1182.49" y="-1824.71" font-family="Helvetica,sans-Serif" font-size="32.00" fill="#29235c">*</text>
<text text-anchor="middle" x="982.08" y="-894.71" font-family="Helvetica,sans-Serif" font-size="32.00" fill="#29235c">1</text>
</g>
<!-- PostTag -->
<g id="PostTag" class="node">
<title>PostTag</title>
<ellipse fill="none" stroke="black" stroke-width="0" cx="263.75" cy="-209.11" rx="216.25" ry="172.57"/>
<polygon fill="#1d71b8" stroke="transparent" points="112.75,-269.11 112.75,-329.11 414.75,-329.11 414.75,-269.11 112.75,-269.11"/>
<polygon fill="none" stroke="#29235c" points="112.75,-269.11 112.75,-329.11 414.75,-329.11 414.75,-269.11 112.75,-269.11"/>
<text text-anchor="start" x="141.93" y="-290.31" font-family="Helvetica,sans-Serif" font-weight="bold" font-size="32.00" fill="#ffffff"> &#160;&#160;&#160;&#160;&#160;&#160;PostTag &#160;&#160;&#160;&#160;&#160;&#160;</text>
<polygon fill="#e7e2dd" stroke="transparent" points="112.75,-209.11 112.75,-269.11 414.75,-269.11 414.75,-209.11 112.75,-209.11"/>
<polygon fill="none" stroke="#29235c" points="112.75,-209.11 112.75,-269.11 414.75,-269.11 414.75,-209.11 112.75,-209.11"/>
<text text-anchor="start" x="123.75" y="-230.31" font-family="Helvetica,sans-Serif" font-weight="bold" font-size="32.00" fill="#29235c">id</text>
<text text-anchor="start" x="148.64" y="-230.31" font-family="Helvetica,sans-Serif" font-size="32.00" fill="#29235c"> &#160;&#160;&#160;</text>
<text text-anchor="start" x="261.53" y="-230.31" font-family="Helvetica,sans-Serif" font-style="italic" font-size="32.00" fill="#29235c">INTEGER</text>
<polygon fill="#e7e2dd" stroke="transparent" points="112.75,-149.11 112.75,-209.11 414.75,-209.11 414.75,-149.11 112.75,-149.11"/>
<polygon fill="none" stroke="#29235c" points="112.75,-149.11 112.75,-209.11 414.75,-209.11 414.75,-149.11 112.75,-149.11"/>
<text text-anchor="start" x="123.39" y="-169.31" font-family="Helvetica,sans-Serif" font-size="32.00" fill="#29235c">post_id &#160;&#160;&#160;</text>
<text text-anchor="start" x="261.64" y="-170.31" font-family="Helvetica,sans-Serif" font-style="italic" font-size="32.00" fill="#29235c">INTEGER</text>
<polygon fill="#e7e2dd" stroke="transparent" points="112.75,-89.11 112.75,-149.11 414.75,-149.11 414.75,-89.11 112.75,-89.11"/>
<polygon fill="none" stroke="#29235c" points="112.75,-89.11 112.75,-149.11 414.75,-149.11 414.75,-89.11 112.75,-89.11"/>
<text text-anchor="start" x="123.75" y="-109.31" font-family="Helvetica,sans-Serif" font-size="32.00" fill="#29235c">tag_id &#160;&#160;&#160;</text>
<text text-anchor="start" x="261.53" y="-110.31" font-family="Helvetica,sans-Serif" font-style="italic" font-size="32.00" fill="#29235c">INTEGER</text>
<polygon fill="none" stroke="#29235c" stroke-width="2" points="111.75,-88.11 111.75,-330.11 415.75,-330.11 415.75,-88.11 111.75,-88.11"/>
</g>
<!-- PostTag&#45;&gt;Post -->
<!-- PostTag&#45;&gt;Post -->
<g id="edge26" class="edge">
<title>PostTag:e&#45;&gt;Post:w</title>
<path fill="none" stroke="#29235c" stroke-width="3" d="M415.75,-179.11C626.81,-179.11 458.29,-577.94 657.11,-590.79"/>
<polygon fill="#29235c" stroke="#29235c" stroke-width="3" points="657.08,-594.29 667.18,-591.11 657.3,-587.29 657.08,-594.29"/>
<text text-anchor="middle" x="660.96" y="-562.31" font-family="Helvetica,sans-Serif" font-size="32.00" fill="#29235c">*</text>
<text text-anchor="middle" x="406.86" y="-150.31" font-family="Helvetica,sans-Serif" font-size="32.00" fill="#29235c">1</text>
</g>
<!-- Tag -->
<g id="Tag" class="node">
<title>Tag</title>
<ellipse fill="none" stroke="black" stroke-width="0" cx="820.18" cy="-130.11" rx="210.02" ry="130.22"/>
<polygon fill="#1d71b8" stroke="transparent" points="674.18,-160.11 674.18,-220.11 967.18,-220.11 967.18,-160.11 674.18,-160.11"/>
<polygon fill="none" stroke="#29235c" points="674.18,-160.11 674.18,-220.11 967.18,-220.11 967.18,-160.11 674.18,-160.11"/>
<text text-anchor="start" x="730.87" y="-181.31" font-family="Helvetica,sans-Serif" font-weight="bold" font-size="32.00" fill="#ffffff"> &#160;&#160;&#160;&#160;&#160;&#160;Tag &#160;&#160;&#160;&#160;&#160;&#160;</text>
<polygon fill="#e7e2dd" stroke="transparent" points="674.18,-100.11 674.18,-160.11 967.18,-160.11 967.18,-100.11 674.18,-100.11"/>
<polygon fill="none" stroke="#29235c" points="674.18,-100.11 674.18,-160.11 967.18,-160.11 967.18,-100.11 674.18,-100.11"/>
<text text-anchor="start" x="685.18" y="-121.31" font-family="Helvetica,sans-Serif" font-weight="bold" font-size="32.00" fill="#29235c">id</text>
<text text-anchor="start" x="710.07" y="-121.31" font-family="Helvetica,sans-Serif" font-size="32.00" fill="#29235c"> &#160;&#160;&#160;</text>
<text text-anchor="start" x="813.96" y="-121.31" font-family="Helvetica,sans-Serif" font-style="italic" font-size="32.00" fill="#29235c">INTEGER</text>
<polygon fill="#e7e2dd" stroke="transparent" points="674.18,-40.11 674.18,-100.11 967.18,-100.11 967.18,-40.11 674.18,-40.11"/>
<polygon fill="none" stroke="#29235c" points="674.18,-40.11 674.18,-100.11 967.18,-100.11 967.18,-40.11 674.18,-40.11"/>
<text text-anchor="start" x="684.89" y="-60.31" font-family="Helvetica,sans-Serif" font-size="32.00" fill="#29235c">name &#160;&#160;&#160;</text>
<text text-anchor="start" x="799.97" y="-61.31" font-family="Helvetica,sans-Serif" font-style="italic" font-size="32.00" fill="#29235c">VARCHAR</text>
<polygon fill="none" stroke="#29235c" stroke-width="2" points="672.68,-39.11 672.68,-221.11 967.68,-221.11 967.68,-39.11 672.68,-39.11"/>
</g>
<!-- PostTag&#45;&gt;Tag -->
<!-- PostTag&#45;&gt;Tag -->
<g id="edge28" class="edge">
<title>PostTag:e&#45;&gt;Tag:w</title>
<path fill="none" stroke="#29235c" stroke-width="3" d="M415.75,-119.11C526.8,-119.11 556.87,-129.45 663.01,-130.08"/>
<polygon fill="#29235c" stroke="#29235c" stroke-width="3" points="663.17,-133.58 673.18,-130.11 663.19,-126.58 663.17,-133.58"/>
<text text-anchor="middle" x="679.4" y="-101.31" font-family="Helvetica,sans-Serif" font-size="32.00" fill="#29235c">*</text>
<text text-anchor="middle" x="406.86" y="-90.31" font-family="Helvetica,sans-Serif" font-size="32.00" fill="#29235c">1</text>
</g>
<!-- Profile&#45;&gt;User -->
<!-- Profile&#45;&gt;User -->
<g id="edge30" class="edge">
<title>Profile:e&#45;&gt;User:w</title>
<path fill="none" stroke="#29235c" stroke-width="3" d="M2097.36,-1575.11C2145.09,-1575.11 2130.27,-1501.31 2096.36,-1467.72 1957.51,-1330.15 1799.52,-1334.41 1656.56,-1467.72 1572.7,-1545.93 1704.43,-1904.29 1620.56,-1982.49 1480.52,-2113.09 1325.52,-2117.49 1189.71,-1982.49 1139.53,-1932.61 1116.6,-1826.18 1178.5,-1815.91"/>
<polygon fill="#29235c" stroke="#29235c" stroke-width="3" points="1179.02,-1819.38 1188.71,-1815.11 1178.47,-1812.4 1179.02,-1819.38"/>
<text text-anchor="middle" x="1194.93" y="-1824.71" font-family="Helvetica,sans-Serif" font-size="32.00" fill="#29235c">*</text>
<text text-anchor="middle" x="2106.26" y="-1584.71" font-family="Helvetica,sans-Serif" font-size="32.00" fill="#29235c">1</text>
</g>
</g>
</svg>
